<mxfile host="Electron" agent="Mozilla/5.0 (Windows NT 10.0; Win64; x64) AppleWebKit/537.36 (KHTML, like Gecko) draw.io/25.0.2 Chrome/128.0.6613.186 Electron/32.2.5 Safari/537.36" version="25.0.2">
  <diagram name="Page-1" id="2YBvvXClWsGukQMizWep">
    <mxGraphModel dx="1318" dy="1040" grid="1" gridSize="10" guides="1" tooltips="1" connect="1" arrows="1" fold="1" page="0" pageScale="1" pageWidth="850" pageHeight="1100" math="0" shadow="0">
      <root>
        <mxCell id="0" />
        <mxCell id="1" parent="0" />
        <mxCell id="4Dc4RqJDjmJk_-gTNo-k-3" value="" style="line;strokeWidth=2;direction=south;html=1;" parent="1" vertex="1">
          <mxGeometry x="-275" y="-60" width="10" height="180" as="geometry" />
        </mxCell>
        <mxCell id="4Dc4RqJDjmJk_-gTNo-k-6" value="Utilisateur" style="rounded=0;whiteSpace=wrap;html=1;" parent="1" vertex="1">
          <mxGeometry x="-330" y="-120" width="120" height="60" as="geometry" />
        </mxCell>
        <mxCell id="4Dc4RqJDjmJk_-gTNo-k-7" value="Authentification" style="rounded=0;whiteSpace=wrap;html=1;" parent="1" vertex="1">
          <mxGeometry x="-40" y="-120" width="120" height="60" as="geometry" />
        </mxCell>
        <mxCell id="4Dc4RqJDjmJk_-gTNo-k-8" value="Notifications" style="rounded=0;whiteSpace=wrap;html=1;" parent="1" vertex="1">
          <mxGeometry x="860" y="-120" width="120" height="60" as="geometry" />
        </mxCell>
        <mxCell id="4Dc4RqJDjmJk_-gTNo-k-9" value="Systeme" style="rounded=0;whiteSpace=wrap;html=1;" parent="1" vertex="1">
          <mxGeometry x="250" y="-120" width="120" height="60" as="geometry" />
        </mxCell>
        <mxCell id="4Dc4RqJDjmJk_-gTNo-k-10" value="Base de données" style="rounded=0;whiteSpace=wrap;html=1;" parent="1" vertex="1">
          <mxGeometry x="530" y="-120" width="120" height="60" as="geometry" />
        </mxCell>
        <mxCell id="4Dc4RqJDjmJk_-gTNo-k-11" value="" style="line;strokeWidth=2;direction=south;html=1;" parent="1" vertex="1">
          <mxGeometry x="15" y="-60" width="10" height="180" as="geometry" />
        </mxCell>
        <mxCell id="4Dc4RqJDjmJk_-gTNo-k-12" value="" style="line;strokeWidth=2;direction=south;html=1;" parent="1" vertex="1">
          <mxGeometry x="305" y="-60" width="10" height="180" as="geometry" />
        </mxCell>
        <mxCell id="4Dc4RqJDjmJk_-gTNo-k-13" value="" style="line;strokeWidth=2;direction=south;html=1;" parent="1" vertex="1">
          <mxGeometry x="585" y="-60" width="10" height="180" as="geometry" />
        </mxCell>
        <mxCell id="4Dc4RqJDjmJk_-gTNo-k-14" value="" style="line;strokeWidth=2;direction=south;html=1;" parent="1" vertex="1">
          <mxGeometry x="915" y="-60" width="10" height="180" as="geometry" />
        </mxCell>
        <mxCell id="4Dc4RqJDjmJk_-gTNo-k-15" value="" style="html=1;points=[[0,0,0,0,5],[0,1,0,0,-5],[1,0,0,0,5],[1,1,0,0,-5]];perimeter=orthogonalPerimeter;outlineConnect=0;targetShapes=umlLifeline;portConstraint=eastwest;newEdgeStyle={&quot;curved&quot;:0,&quot;rounded&quot;:0};" parent="1" vertex="1">
          <mxGeometry x="305" y="110" width="10" height="30" as="geometry" />
        </mxCell>
        <mxCell id="4Dc4RqJDjmJk_-gTNo-k-16" value="" style="html=1;points=[[0,0,0,0,5],[0,1,0,0,-5],[1,0,0,0,5],[1,1,0,0,-5]];perimeter=orthogonalPerimeter;outlineConnect=0;targetShapes=umlLifeline;portConstraint=eastwest;newEdgeStyle={&quot;curved&quot;:0,&quot;rounded&quot;:0};" parent="1" vertex="1">
          <mxGeometry x="585" y="10" width="10" height="30" as="geometry" />
        </mxCell>
        <mxCell id="4Dc4RqJDjmJk_-gTNo-k-19" value="" style="endArrow=classic;html=1;rounded=0;exitX=0.25;exitY=0.5;exitDx=0;exitDy=0;exitPerimeter=0;entryX=0.25;entryY=0.5;entryDx=0;entryDy=0;entryPerimeter=0;" parent="1" source="4Dc4RqJDjmJk_-gTNo-k-3" target="4Dc4RqJDjmJk_-gTNo-k-11" edge="1">
          <mxGeometry width="50" height="50" relative="1" as="geometry">
            <mxPoint x="-10" y="60" as="sourcePoint" />
            <mxPoint x="40" y="10" as="targetPoint" />
          </mxGeometry>
        </mxCell>
        <mxCell id="4Dc4RqJDjmJk_-gTNo-k-20" value="Saisir identifiants" style="text;html=1;align=center;verticalAlign=middle;whiteSpace=wrap;rounded=0;" parent="1" vertex="1">
          <mxGeometry x="-200" y="-50" width="150" height="30" as="geometry" />
        </mxCell>
        <mxCell id="4Dc4RqJDjmJk_-gTNo-k-21" value="" style="endArrow=classic;html=1;rounded=0;exitX=0.367;exitY=0.456;exitDx=0;exitDy=0;exitPerimeter=0;entryX=0.348;entryY=0.922;entryDx=0;entryDy=0;entryPerimeter=0;" parent="1" source="4Dc4RqJDjmJk_-gTNo-k-11" target="4Dc4RqJDjmJk_-gTNo-k-13" edge="1">
          <mxGeometry width="50" height="50" relative="1" as="geometry">
            <mxPoint x="-10" y="60" as="sourcePoint" />
            <mxPoint x="40" y="10" as="targetPoint" />
          </mxGeometry>
        </mxCell>
        <mxCell id="4Dc4RqJDjmJk_-gTNo-k-22" value="Verifier credentials" style="text;html=1;align=center;verticalAlign=middle;whiteSpace=wrap;rounded=0;" parent="1" vertex="1">
          <mxGeometry x="245" y="-30" width="235" height="30" as="geometry" />
        </mxCell>
        <mxCell id="4Dc4RqJDjmJk_-gTNo-k-23" value="Retourner resultats" style="html=1;verticalAlign=bottom;endArrow=open;dashed=1;endSize=8;curved=0;rounded=0;exitX=0.609;exitY=0.656;exitDx=0;exitDy=0;exitPerimeter=0;entryX=0.629;entryY=0.722;entryDx=0;entryDy=0;entryPerimeter=0;" parent="1" source="4Dc4RqJDjmJk_-gTNo-k-13" target="4Dc4RqJDjmJk_-gTNo-k-11" edge="1">
          <mxGeometry relative="1" as="geometry">
            <mxPoint x="270" y="30" as="sourcePoint" />
            <mxPoint x="30" y="50" as="targetPoint" />
          </mxGeometry>
        </mxCell>
        <mxCell id="4Dc4RqJDjmJk_-gTNo-k-24" value="Creer salon" style="html=1;verticalAlign=bottom;endArrow=block;curved=0;rounded=0;exitX=0.856;exitY=0.278;exitDx=0;exitDy=0;exitPerimeter=0;entryX=0.841;entryY=0.656;entryDx=0;entryDy=0;entryPerimeter=0;" parent="1" source="4Dc4RqJDjmJk_-gTNo-k-11" target="4Dc4RqJDjmJk_-gTNo-k-12" edge="1">
          <mxGeometry width="80" relative="1" as="geometry">
            <mxPoint x="190" y="30" as="sourcePoint" />
            <mxPoint x="300" y="94" as="targetPoint" />
          </mxGeometry>
        </mxCell>
        <mxCell id="4Dc4RqJDjmJk_-gTNo-k-25" value="" style="line;strokeWidth=2;direction=south;html=1;" parent="1" vertex="1">
          <mxGeometry x="305" y="140" width="10" height="100" as="geometry" />
        </mxCell>
        <mxCell id="4Dc4RqJDjmJk_-gTNo-k-26" value="" style="line;strokeWidth=2;direction=south;html=1;" parent="1" vertex="1">
          <mxGeometry x="15" y="120" width="10" height="120" as="geometry" />
        </mxCell>
        <mxCell id="4Dc4RqJDjmJk_-gTNo-k-27" value="" style="line;strokeWidth=2;direction=south;html=1;" parent="1" vertex="1">
          <mxGeometry x="585" y="120" width="10" height="120" as="geometry" />
        </mxCell>
        <mxCell id="4Dc4RqJDjmJk_-gTNo-k-28" value="" style="line;strokeWidth=2;direction=south;html=1;" parent="1" vertex="1">
          <mxGeometry x="-275" y="120" width="10" height="120" as="geometry" />
        </mxCell>
        <mxCell id="4Dc4RqJDjmJk_-gTNo-k-29" value="" style="line;strokeWidth=2;direction=south;html=1;" parent="1" vertex="1">
          <mxGeometry x="915" y="120" width="10" height="120" as="geometry" />
        </mxCell>
        <mxCell id="4Dc4RqJDjmJk_-gTNo-k-30" value="Session creer" style="html=1;verticalAlign=bottom;endArrow=open;dashed=1;endSize=8;curved=0;rounded=0;exitX=0.25;exitY=0.5;exitDx=0;exitDy=0;exitPerimeter=0;entryX=0.362;entryY=0.011;entryDx=0;entryDy=0;entryPerimeter=0;" parent="1" source="4Dc4RqJDjmJk_-gTNo-k-25" target="4Dc4RqJDjmJk_-gTNo-k-26" edge="1">
          <mxGeometry relative="1" as="geometry">
            <mxPoint x="-50" y="250" as="sourcePoint" />
            <mxPoint x="-130" y="250" as="targetPoint" />
          </mxGeometry>
        </mxCell>
        <mxCell id="4Dc4RqJDjmJk_-gTNo-k-31" value="Redirection dashboard" style="html=1;verticalAlign=bottom;endArrow=open;dashed=1;endSize=8;curved=0;rounded=0;exitX=0.681;exitY=0.456;exitDx=0;exitDy=0;exitPerimeter=0;entryX=0.658;entryY=0.7;entryDx=0;entryDy=0;entryPerimeter=0;" parent="1" source="4Dc4RqJDjmJk_-gTNo-k-26" target="4Dc4RqJDjmJk_-gTNo-k-28" edge="1">
          <mxGeometry relative="1" as="geometry">
            <mxPoint x="-50" y="250" as="sourcePoint" />
            <mxPoint x="-130" y="250" as="targetPoint" />
          </mxGeometry>
        </mxCell>
        <mxCell id="4Dc4RqJDjmJk_-gTNo-k-32" value="Scénario: Enseignant crée un cours" style="rounded=0;whiteSpace=wrap;html=1;" parent="1" vertex="1">
          <mxGeometry x="-320" y="240" width="1280" height="60" as="geometry" />
        </mxCell>
        <mxCell id="4Dc4RqJDjmJk_-gTNo-k-33" value="" style="line;strokeWidth=2;direction=south;html=1;" parent="1" vertex="1">
          <mxGeometry x="-275" y="300" width="10" height="930" as="geometry" />
        </mxCell>
        <mxCell id="4Dc4RqJDjmJk_-gTNo-k-34" value="" style="line;strokeWidth=2;direction=south;html=1;" parent="1" vertex="1">
          <mxGeometry x="15" y="300" width="10" height="930" as="geometry" />
        </mxCell>
        <mxCell id="4Dc4RqJDjmJk_-gTNo-k-35" value="" style="line;strokeWidth=2;direction=south;html=1;" parent="1" vertex="1">
          <mxGeometry x="305" y="300" width="10" height="930" as="geometry" />
        </mxCell>
        <mxCell id="4Dc4RqJDjmJk_-gTNo-k-36" value="" style="line;strokeWidth=2;direction=south;html=1;" parent="1" vertex="1">
          <mxGeometry x="585" y="300" width="10" height="930" as="geometry" />
        </mxCell>
        <mxCell id="4Dc4RqJDjmJk_-gTNo-k-37" value="" style="line;strokeWidth=2;direction=south;html=1;" parent="1" vertex="1">
          <mxGeometry x="915" y="300" width="10" height="930" as="geometry" />
        </mxCell>
        <mxCell id="4Dc4RqJDjmJk_-gTNo-k-38" value="" style="html=1;points=[[0,0,0,0,5],[0,1,0,0,-5],[1,0,0,0,5],[1,1,0,0,-5]];perimeter=orthogonalPerimeter;outlineConnect=0;targetShapes=umlLifeline;portConstraint=eastwest;newEdgeStyle={&quot;curved&quot;:0,&quot;rounded&quot;:0};" parent="1" vertex="1">
          <mxGeometry x="305" y="360" width="10" height="310" as="geometry" />
        </mxCell>
        <mxCell id="4Dc4RqJDjmJk_-gTNo-k-39" value="" style="html=1;points=[[0,0,0,0,5],[0,1,0,0,-5],[1,0,0,0,5],[1,1,0,0,-5]];perimeter=orthogonalPerimeter;outlineConnect=0;targetShapes=umlLifeline;portConstraint=eastwest;newEdgeStyle={&quot;curved&quot;:0,&quot;rounded&quot;:0};" parent="1" vertex="1">
          <mxGeometry x="585" y="420" width="10" height="60" as="geometry" />
        </mxCell>
        <mxCell id="4Dc4RqJDjmJk_-gTNo-k-41" value="" style="html=1;points=[[0,0,0,0,5],[0,1,0,0,-5],[1,0,0,0,5],[1,1,0,0,-5]];perimeter=orthogonalPerimeter;outlineConnect=0;targetShapes=umlLifeline;portConstraint=eastwest;newEdgeStyle={&quot;curved&quot;:0,&quot;rounded&quot;:0};" parent="1" vertex="1">
          <mxGeometry x="585" y="770" width="10" height="50" as="geometry" />
        </mxCell>
        <mxCell id="4Dc4RqJDjmJk_-gTNo-k-43" value="" style="html=1;points=[[0,0,0,0,5],[0,1,0,0,-5],[1,0,0,0,5],[1,1,0,0,-5]];perimeter=orthogonalPerimeter;outlineConnect=0;targetShapes=umlLifeline;portConstraint=eastwest;newEdgeStyle={&quot;curved&quot;:0,&quot;rounded&quot;:0};" parent="1" vertex="1">
          <mxGeometry x="305" y="725" width="10" height="145" as="geometry" />
        </mxCell>
        <mxCell id="4Dc4RqJDjmJk_-gTNo-k-44" value="Creer nouveau cours" style="html=1;verticalAlign=bottom;endArrow=block;curved=0;rounded=0;exitX=0.042;exitY=0.967;exitDx=0;exitDy=0;exitPerimeter=0;entryX=0.047;entryY=0.3;entryDx=0;entryDy=0;entryPerimeter=0;" parent="1" source="4Dc4RqJDjmJk_-gTNo-k-33" target="4Dc4RqJDjmJk_-gTNo-k-35" edge="1">
          <mxGeometry width="80" relative="1" as="geometry">
            <mxPoint x="170" y="460" as="sourcePoint" />
            <mxPoint x="250" y="460" as="targetPoint" />
          </mxGeometry>
        </mxCell>
        <mxCell id="4Dc4RqJDjmJk_-gTNo-k-45" value="Enregistrer cours" style="html=1;verticalAlign=bottom;endArrow=block;curved=0;rounded=0;entryX=0.13;entryY=0.167;entryDx=0;entryDy=0;entryPerimeter=0;exitX=0.133;exitY=0.033;exitDx=0;exitDy=0;exitPerimeter=0;" parent="1" source="4Dc4RqJDjmJk_-gTNo-k-35" target="4Dc4RqJDjmJk_-gTNo-k-36" edge="1">
          <mxGeometry width="80" relative="1" as="geometry">
            <mxPoint x="170" y="460" as="sourcePoint" />
            <mxPoint x="250" y="460" as="targetPoint" />
          </mxGeometry>
        </mxCell>
        <mxCell id="4Dc4RqJDjmJk_-gTNo-k-46" value="Confirmation" style="html=1;verticalAlign=bottom;endArrow=open;dashed=1;endSize=8;curved=0;rounded=0;exitX=0.206;exitY=0.3;exitDx=0;exitDy=0;exitPerimeter=0;entryX=0.207;entryY=-0.233;entryDx=0;entryDy=0;entryPerimeter=0;" parent="1" source="4Dc4RqJDjmJk_-gTNo-k-36" target="4Dc4RqJDjmJk_-gTNo-k-35" edge="1">
          <mxGeometry relative="1" as="geometry">
            <mxPoint x="250" y="460" as="sourcePoint" />
            <mxPoint x="170" y="460" as="targetPoint" />
          </mxGeometry>
        </mxCell>
        <mxCell id="4Dc4RqJDjmJk_-gTNo-k-47" value="Notifier etudiants" style="html=1;verticalAlign=bottom;endArrow=block;curved=0;rounded=0;entryX=0.283;entryY=0.9;entryDx=0;entryDy=0;entryPerimeter=0;" parent="1" target="4Dc4RqJDjmJk_-gTNo-k-37" edge="1">
          <mxGeometry width="80" relative="1" as="geometry">
            <mxPoint x="320" y="560" as="sourcePoint" />
            <mxPoint x="470" y="460" as="targetPoint" />
          </mxGeometry>
        </mxCell>
        <mxCell id="4Dc4RqJDjmJk_-gTNo-k-49" value="Notification envoyée" style="html=1;verticalAlign=bottom;endArrow=open;dashed=1;endSize=8;curved=0;rounded=0;entryX=0.342;entryY=0.833;entryDx=0;entryDy=0;entryPerimeter=0;exitX=0.341;exitY=0.767;exitDx=0;exitDy=0;exitPerimeter=0;" parent="1" source="4Dc4RqJDjmJk_-gTNo-k-37" target="4Dc4RqJDjmJk_-gTNo-k-33" edge="1">
          <mxGeometry relative="1" as="geometry">
            <mxPoint x="470" y="460" as="sourcePoint" />
            <mxPoint x="390" y="460" as="targetPoint" />
          </mxGeometry>
        </mxCell>
        <mxCell id="4Dc4RqJDjmJk_-gTNo-k-50" value="Cours crée" style="html=1;verticalAlign=bottom;endArrow=open;dashed=1;endSize=8;curved=0;rounded=0;entryX=0.414;entryY=0.567;entryDx=0;entryDy=0;entryPerimeter=0;exitX=0.415;exitY=0.833;exitDx=0;exitDy=0;exitPerimeter=0;" parent="1" source="4Dc4RqJDjmJk_-gTNo-k-35" target="4Dc4RqJDjmJk_-gTNo-k-33" edge="1">
          <mxGeometry relative="1" as="geometry">
            <mxPoint x="470" y="460" as="sourcePoint" />
            <mxPoint x="390" y="460" as="targetPoint" />
          </mxGeometry>
        </mxCell>
        <mxCell id="4Dc4RqJDjmJk_-gTNo-k-51" value="Ajouter contenue cours" style="html=1;verticalAlign=bottom;endArrow=block;curved=0;rounded=0;entryX=0.451;entryY=0.7;entryDx=0;entryDy=0;entryPerimeter=0;" parent="1" target="4Dc4RqJDjmJk_-gTNo-k-35" edge="1">
          <mxGeometry width="80" relative="1" as="geometry">
            <mxPoint x="-280" y="720" as="sourcePoint" />
            <mxPoint x="470" y="460" as="targetPoint" />
          </mxGeometry>
        </mxCell>
        <mxCell id="4Dc4RqJDjmJk_-gTNo-k-52" value="Sauvegarder contenu" style="html=1;verticalAlign=bottom;endArrow=block;curved=0;rounded=0;entryX=0.498;entryY=0.167;entryDx=0;entryDy=0;entryPerimeter=0;" parent="1" source="4Dc4RqJDjmJk_-gTNo-k-35" target="4Dc4RqJDjmJk_-gTNo-k-36" edge="1">
          <mxGeometry width="80" relative="1" as="geometry">
            <mxPoint x="390" y="460" as="sourcePoint" />
            <mxPoint x="470" y="460" as="targetPoint" />
          </mxGeometry>
        </mxCell>
        <mxCell id="4Dc4RqJDjmJk_-gTNo-k-53" value="" style="html=1;verticalAlign=bottom;endArrow=open;dashed=1;endSize=8;curved=0;rounded=0;exitX=0.571;exitY=0.567;exitDx=0;exitDy=0;exitPerimeter=0;" parent="1" source="4Dc4RqJDjmJk_-gTNo-k-36" edge="1">
          <mxGeometry relative="1" as="geometry">
            <mxPoint x="470" y="460" as="sourcePoint" />
            <mxPoint x="320" y="831" as="targetPoint" />
          </mxGeometry>
        </mxCell>
        <mxCell id="4Dc4RqJDjmJk_-gTNo-k-54" value="Confirmation" style="edgeLabel;html=1;align=center;verticalAlign=middle;resizable=0;points=[];" parent="4Dc4RqJDjmJk_-gTNo-k-53" vertex="1" connectable="0">
          <mxGeometry x="0.005" y="-16" relative="1" as="geometry">
            <mxPoint x="1" as="offset" />
          </mxGeometry>
        </mxCell>
        <mxCell id="4Dc4RqJDjmJk_-gTNo-k-55" value="Contenu ajouté" style="html=1;verticalAlign=bottom;endArrow=open;dashed=1;endSize=8;curved=0;rounded=0;entryX=0.622;entryY=0.3;entryDx=0;entryDy=0;entryPerimeter=0;exitX=0.627;exitY=-0.233;exitDx=0;exitDy=0;exitPerimeter=0;" parent="1" source="4Dc4RqJDjmJk_-gTNo-k-35" target="4Dc4RqJDjmJk_-gTNo-k-33" edge="1">
          <mxGeometry relative="1" as="geometry">
            <mxPoint x="470" y="850" as="sourcePoint" />
            <mxPoint x="390" y="850" as="targetPoint" />
          </mxGeometry>
        </mxCell>
        <mxCell id="4Dc4RqJDjmJk_-gTNo-k-56" value="" style="html=1;points=[[0,0,0,0,5],[0,1,0,0,-5],[1,0,0,0,5],[1,1,0,0,-5]];perimeter=orthogonalPerimeter;outlineConnect=0;targetShapes=umlLifeline;portConstraint=eastwest;newEdgeStyle={&quot;curved&quot;:0,&quot;rounded&quot;:0};" parent="1" vertex="1">
          <mxGeometry x="305" y="930" width="10" height="260" as="geometry" />
        </mxCell>
        <mxCell id="4Dc4RqJDjmJk_-gTNo-k-57" value="" style="html=1;points=[[0,0,0,0,5],[0,1,0,0,-5],[1,0,0,0,5],[1,1,0,0,-5]];perimeter=orthogonalPerimeter;outlineConnect=0;targetShapes=umlLifeline;portConstraint=eastwest;newEdgeStyle={&quot;curved&quot;:0,&quot;rounded&quot;:0};" parent="1" vertex="1">
          <mxGeometry x="585" y="960" width="10" height="80" as="geometry" />
        </mxCell>
        <mxCell id="4Dc4RqJDjmJk_-gTNo-k-58" value="Creer quiz" style="html=1;verticalAlign=bottom;endArrow=block;curved=0;rounded=0;exitX=0.675;exitY=0.433;exitDx=0;exitDy=0;exitPerimeter=0;entryX=0.676;entryY=0.167;entryDx=0;entryDy=0;entryPerimeter=0;" parent="1" source="4Dc4RqJDjmJk_-gTNo-k-33" target="4Dc4RqJDjmJk_-gTNo-k-35" edge="1">
          <mxGeometry width="80" relative="1" as="geometry">
            <mxPoint x="390" y="850" as="sourcePoint" />
            <mxPoint x="470" y="850" as="targetPoint" />
          </mxGeometry>
        </mxCell>
        <mxCell id="4Dc4RqJDjmJk_-gTNo-k-59" value="Enregister quiz" style="html=1;verticalAlign=bottom;endArrow=block;curved=0;rounded=0;entryX=0.709;entryY=0.967;entryDx=0;entryDy=0;entryPerimeter=0;" parent="1" target="4Dc4RqJDjmJk_-gTNo-k-36" edge="1">
          <mxGeometry width="80" relative="1" as="geometry">
            <mxPoint x="320" y="960" as="sourcePoint" />
            <mxPoint x="470" y="850" as="targetPoint" />
          </mxGeometry>
        </mxCell>
        <mxCell id="4Dc4RqJDjmJk_-gTNo-k-60" value="Confirmation" style="html=1;verticalAlign=bottom;endArrow=open;dashed=1;endSize=8;curved=0;rounded=0;exitX=0.808;exitY=0.567;exitDx=0;exitDy=0;exitPerimeter=0;" parent="1" source="4Dc4RqJDjmJk_-gTNo-k-36" edge="1">
          <mxGeometry relative="1" as="geometry">
            <mxPoint x="470" y="850" as="sourcePoint" />
            <mxPoint x="320" y="1051" as="targetPoint" />
          </mxGeometry>
        </mxCell>
        <mxCell id="4Dc4RqJDjmJk_-gTNo-k-61" value="Notifier etudiant" style="html=1;verticalAlign=bottom;endArrow=block;curved=0;rounded=0;entryX=0.871;entryY=0.911;entryDx=0;entryDy=0;entryPerimeter=0;" parent="1" target="4Dc4RqJDjmJk_-gTNo-k-37" edge="1">
          <mxGeometry width="80" relative="1" as="geometry">
            <mxPoint x="320" y="1110" as="sourcePoint" />
            <mxPoint x="400" y="930" as="targetPoint" />
          </mxGeometry>
        </mxCell>
        <mxCell id="4Dc4RqJDjmJk_-gTNo-k-62" value="" style="html=1;verticalAlign=bottom;endArrow=open;dashed=1;endSize=8;curved=0;rounded=0;entryX=0.924;entryY=0.43;entryDx=0;entryDy=0;entryPerimeter=0;exitX=0.922;exitY=0.763;exitDx=0;exitDy=0;exitPerimeter=0;" parent="1" source="4Dc4RqJDjmJk_-gTNo-k-37" target="4Dc4RqJDjmJk_-gTNo-k-33" edge="1">
          <mxGeometry relative="1" as="geometry">
            <mxPoint x="400" y="930" as="sourcePoint" />
            <mxPoint x="320" y="930" as="targetPoint" />
          </mxGeometry>
        </mxCell>
        <mxCell id="4Dc4RqJDjmJk_-gTNo-k-63" value="Notification envoyée" style="edgeLabel;html=1;align=center;verticalAlign=middle;resizable=0;points=[];" parent="4Dc4RqJDjmJk_-gTNo-k-62" vertex="1" connectable="0">
          <mxGeometry x="0.0074" y="-25" relative="1" as="geometry">
            <mxPoint as="offset" />
          </mxGeometry>
        </mxCell>
        <mxCell id="4Dc4RqJDjmJk_-gTNo-k-65" value="Quiz crée" style="html=1;verticalAlign=bottom;endArrow=open;dashed=1;endSize=8;curved=0;rounded=0;entryX=0.976;entryY=-0.163;entryDx=0;entryDy=0;entryPerimeter=0;exitX=0.976;exitY=0.356;exitDx=0;exitDy=0;exitPerimeter=0;" parent="1" source="4Dc4RqJDjmJk_-gTNo-k-35" target="4Dc4RqJDjmJk_-gTNo-k-33" edge="1">
          <mxGeometry relative="1" as="geometry">
            <mxPoint x="400" y="1220" as="sourcePoint" />
            <mxPoint x="320" y="1220" as="targetPoint" />
          </mxGeometry>
        </mxCell>
        <mxCell id="4Dc4RqJDjmJk_-gTNo-k-66" value="Scénario : Etudiant suit cours" style="rounded=0;whiteSpace=wrap;html=1;" parent="1" vertex="1">
          <mxGeometry x="-320" y="1220" width="1280" height="60" as="geometry" />
        </mxCell>
        <mxCell id="zVxiFQP6XtRMZ8oRR69P-1" value="" style="line;strokeWidth=2;direction=south;html=1;" vertex="1" parent="1">
          <mxGeometry x="-275" y="1280" width="10" height="760" as="geometry" />
        </mxCell>
        <mxCell id="zVxiFQP6XtRMZ8oRR69P-2" value="" style="line;strokeWidth=2;direction=south;html=1;" vertex="1" parent="1">
          <mxGeometry x="15" y="1280" width="10" height="760" as="geometry" />
        </mxCell>
        <mxCell id="zVxiFQP6XtRMZ8oRR69P-3" value="" style="line;strokeWidth=2;direction=south;html=1;" vertex="1" parent="1">
          <mxGeometry x="305" y="1280" width="10" height="760" as="geometry" />
        </mxCell>
        <mxCell id="zVxiFQP6XtRMZ8oRR69P-4" value="" style="line;strokeWidth=2;direction=south;html=1;" vertex="1" parent="1">
          <mxGeometry x="585" y="1280" width="10" height="760" as="geometry" />
        </mxCell>
        <mxCell id="zVxiFQP6XtRMZ8oRR69P-5" value="" style="line;strokeWidth=2;direction=south;html=1;" vertex="1" parent="1">
          <mxGeometry x="915" y="1280" width="10" height="760" as="geometry" />
        </mxCell>
        <mxCell id="zVxiFQP6XtRMZ8oRR69P-7" value="" style="html=1;points=[[0,0,0,0,5],[0,1,0,0,-5],[1,0,0,0,5],[1,1,0,0,-5]];perimeter=orthogonalPerimeter;outlineConnect=0;targetShapes=umlLifeline;portConstraint=eastwest;newEdgeStyle={&quot;curved&quot;:0,&quot;rounded&quot;:0};" vertex="1" parent="1">
          <mxGeometry x="305" y="1320" width="15" height="120" as="geometry" />
        </mxCell>
        <mxCell id="zVxiFQP6XtRMZ8oRR69P-8" value="" style="html=1;points=[[0,0,0,0,5],[0,1,0,0,-5],[1,0,0,0,5],[1,1,0,0,-5]];perimeter=orthogonalPerimeter;outlineConnect=0;targetShapes=umlLifeline;portConstraint=eastwest;newEdgeStyle={&quot;curved&quot;:0,&quot;rounded&quot;:0};" vertex="1" parent="1">
          <mxGeometry x="305" y="1640" width="15" height="360" as="geometry" />
        </mxCell>
        <mxCell id="zVxiFQP6XtRMZ8oRR69P-9" value="" style="html=1;points=[[0,0,0,0,5],[0,1,0,0,-5],[1,0,0,0,5],[1,1,0,0,-5]];perimeter=orthogonalPerimeter;outlineConnect=0;targetShapes=umlLifeline;portConstraint=eastwest;newEdgeStyle={&quot;curved&quot;:0,&quot;rounded&quot;:0};" vertex="1" parent="1">
          <mxGeometry x="585" y="1360" width="10" height="40" as="geometry" />
        </mxCell>
        <mxCell id="zVxiFQP6XtRMZ8oRR69P-10" value="" style="html=1;points=[[0,0,0,0,5],[0,1,0,0,-5],[1,0,0,0,5],[1,1,0,0,-5]];perimeter=orthogonalPerimeter;outlineConnect=0;targetShapes=umlLifeline;portConstraint=eastwest;newEdgeStyle={&quot;curved&quot;:0,&quot;rounded&quot;:0};" vertex="1" parent="1">
          <mxGeometry x="585" y="1520" width="10" height="30" as="geometry" />
        </mxCell>
        <mxCell id="zVxiFQP6XtRMZ8oRR69P-11" value="" style="html=1;points=[[0,0,0,0,5],[0,1,0,0,-5],[1,0,0,0,5],[1,1,0,0,-5]];perimeter=orthogonalPerimeter;outlineConnect=0;targetShapes=umlLifeline;portConstraint=eastwest;newEdgeStyle={&quot;curved&quot;:0,&quot;rounded&quot;:0};" vertex="1" parent="1">
          <mxGeometry x="585" y="1680" width="10" height="40" as="geometry" />
        </mxCell>
        <mxCell id="zVxiFQP6XtRMZ8oRR69P-12" value="" style="html=1;points=[[0,0,0,0,5],[0,1,0,0,-5],[1,0,0,0,5],[1,1,0,0,-5]];perimeter=orthogonalPerimeter;outlineConnect=0;targetShapes=umlLifeline;portConstraint=eastwest;newEdgeStyle={&quot;curved&quot;:0,&quot;rounded&quot;:0};" vertex="1" parent="1">
          <mxGeometry x="585" y="1840" width="10" height="40" as="geometry" />
        </mxCell>
        <mxCell id="zVxiFQP6XtRMZ8oRR69P-13" value="Accéder aux cours" style="html=1;verticalAlign=bottom;endArrow=block;curved=0;rounded=0;exitX=0.052;exitY=0.25;exitDx=0;exitDy=0;exitPerimeter=0;entryX=0.053;entryY=0.583;entryDx=0;entryDy=0;entryPerimeter=0;" edge="1" parent="1" source="zVxiFQP6XtRMZ8oRR69P-1" target="zVxiFQP6XtRMZ8oRR69P-3">
          <mxGeometry width="80" relative="1" as="geometry">
            <mxPoint x="40" y="1540" as="sourcePoint" />
            <mxPoint x="120" y="1540" as="targetPoint" />
          </mxGeometry>
        </mxCell>
        <mxCell id="zVxiFQP6XtRMZ8oRR69P-14" value="Charger contenu" style="html=1;verticalAlign=bottom;endArrow=block;curved=0;rounded=0;entryX=0.108;entryY=0.417;entryDx=0;entryDy=0;entryPerimeter=0;" edge="1" parent="1" source="zVxiFQP6XtRMZ8oRR69P-7" target="zVxiFQP6XtRMZ8oRR69P-4">
          <mxGeometry width="80" relative="1" as="geometry">
            <mxPoint x="310" y="1510" as="sourcePoint" />
            <mxPoint x="390" y="1510" as="targetPoint" />
          </mxGeometry>
        </mxCell>
        <mxCell id="zVxiFQP6XtRMZ8oRR69P-15" value="Retourner contenu" style="html=1;verticalAlign=bottom;endArrow=open;dashed=1;endSize=8;curved=0;rounded=0;exitX=0.164;exitY=0.75;exitDx=0;exitDy=0;exitPerimeter=0;entryX=1.167;entryY=0.677;entryDx=0;entryDy=0;entryPerimeter=0;" edge="1" parent="1" source="zVxiFQP6XtRMZ8oRR69P-4" target="zVxiFQP6XtRMZ8oRR69P-7">
          <mxGeometry relative="1" as="geometry">
            <mxPoint x="390" y="1510" as="sourcePoint" />
            <mxPoint x="310" y="1510" as="targetPoint" />
          </mxGeometry>
        </mxCell>
        <mxCell id="zVxiFQP6XtRMZ8oRR69P-16" value="Affichee cours" style="html=1;verticalAlign=bottom;endArrow=open;dashed=1;endSize=8;curved=0;rounded=0;entryX=0.209;entryY=0.167;entryDx=0;entryDy=0;entryPerimeter=0;exitX=0.215;exitY=0.75;exitDx=0;exitDy=0;exitPerimeter=0;" edge="1" parent="1" source="zVxiFQP6XtRMZ8oRR69P-3" target="zVxiFQP6XtRMZ8oRR69P-1">
          <mxGeometry relative="1" as="geometry">
            <mxPoint x="150" y="1510" as="sourcePoint" />
            <mxPoint x="70" y="1510" as="targetPoint" />
          </mxGeometry>
        </mxCell>
        <mxCell id="zVxiFQP6XtRMZ8oRR69P-17" value="Commencer quiz" style="html=1;verticalAlign=bottom;endArrow=block;curved=0;rounded=0;exitX=0.265;exitY=0.75;exitDx=0;exitDy=0;exitPerimeter=0;entryX=0.266;entryY=0.333;entryDx=0;entryDy=0;entryPerimeter=0;" edge="1" parent="1" source="zVxiFQP6XtRMZ8oRR69P-1" target="zVxiFQP6XtRMZ8oRR69P-3">
          <mxGeometry width="80" relative="1" as="geometry">
            <mxPoint x="160" y="1630" as="sourcePoint" />
            <mxPoint x="240" y="1630" as="targetPoint" />
          </mxGeometry>
        </mxCell>
        <mxCell id="zVxiFQP6XtRMZ8oRR69P-18" value="Charger questions" style="html=1;verticalAlign=bottom;endArrow=block;curved=0;rounded=0;entryX=0.314;entryY=0.417;entryDx=0;entryDy=0;entryPerimeter=0;exitX=0.316;exitY=0.417;exitDx=0;exitDy=0;exitPerimeter=0;" edge="1" parent="1" source="zVxiFQP6XtRMZ8oRR69P-3" target="zVxiFQP6XtRMZ8oRR69P-4">
          <mxGeometry width="80" relative="1" as="geometry">
            <mxPoint x="160" y="1630" as="sourcePoint" />
            <mxPoint x="240" y="1630" as="targetPoint" />
          </mxGeometry>
        </mxCell>
        <mxCell id="zVxiFQP6XtRMZ8oRR69P-19" value="Retourner questions" style="html=1;verticalAlign=bottom;endArrow=open;dashed=1;endSize=8;curved=0;rounded=0;exitX=0.37;exitY=0.75;exitDx=0;exitDy=0;exitPerimeter=0;entryX=0.368;entryY=0.917;entryDx=0;entryDy=0;entryPerimeter=0;" edge="1" parent="1" source="zVxiFQP6XtRMZ8oRR69P-4" target="zVxiFQP6XtRMZ8oRR69P-3">
          <mxGeometry relative="1" as="geometry">
            <mxPoint x="240" y="1630" as="sourcePoint" />
            <mxPoint x="160" y="1630" as="targetPoint" />
          </mxGeometry>
        </mxCell>
        <mxCell id="zVxiFQP6XtRMZ8oRR69P-20" value="Afficher quiz" style="html=1;verticalAlign=bottom;endArrow=open;dashed=1;endSize=8;curved=0;rounded=0;exitX=0.419;exitY=0.833;exitDx=0;exitDy=0;exitPerimeter=0;entryX=0.421;entryY=0.167;entryDx=0;entryDy=0;entryPerimeter=0;" edge="1" parent="1" source="zVxiFQP6XtRMZ8oRR69P-3" target="zVxiFQP6XtRMZ8oRR69P-1">
          <mxGeometry relative="1" as="geometry">
            <mxPoint x="240" y="1630" as="sourcePoint" />
            <mxPoint x="160" y="1630" as="targetPoint" />
          </mxGeometry>
        </mxCell>
        <mxCell id="zVxiFQP6XtRMZ8oRR69P-21" value="Soumettre reponses" style="html=1;verticalAlign=bottom;endArrow=block;curved=0;rounded=0;exitX=0.473;exitY=0.417;exitDx=0;exitDy=0;exitPerimeter=0;entryX=0.472;entryY=0.583;entryDx=0;entryDy=0;entryPerimeter=0;" edge="1" parent="1" source="zVxiFQP6XtRMZ8oRR69P-1" target="zVxiFQP6XtRMZ8oRR69P-3">
          <mxGeometry width="80" relative="1" as="geometry">
            <mxPoint x="160" y="1630" as="sourcePoint" />
            <mxPoint x="240" y="1630" as="targetPoint" />
          </mxGeometry>
        </mxCell>
        <mxCell id="zVxiFQP6XtRMZ8oRR69P-22" value="Enregistrer reponses" style="html=1;verticalAlign=bottom;endArrow=block;curved=0;rounded=0;entryX=0.521;entryY=0.833;entryDx=0;entryDy=0;entryPerimeter=0;" edge="1" parent="1" source="zVxiFQP6XtRMZ8oRR69P-8" target="zVxiFQP6XtRMZ8oRR69P-4">
          <mxGeometry width="80" relative="1" as="geometry">
            <mxPoint x="160" y="1630" as="sourcePoint" />
            <mxPoint x="240" y="1630" as="targetPoint" />
          </mxGeometry>
        </mxCell>
        <mxCell id="zVxiFQP6XtRMZ8oRR69P-23" value="Confirmation" style="html=1;verticalAlign=bottom;endArrow=open;dashed=1;endSize=8;curved=0;rounded=0;exitX=0.578;exitY=0.75;exitDx=0;exitDy=0;exitPerimeter=0;" edge="1" parent="1" source="zVxiFQP6XtRMZ8oRR69P-4" target="zVxiFQP6XtRMZ8oRR69P-8">
          <mxGeometry relative="1" as="geometry">
            <mxPoint x="240" y="1630" as="sourcePoint" />
            <mxPoint x="160" y="1630" as="targetPoint" />
          </mxGeometry>
        </mxCell>
        <mxCell id="zVxiFQP6XtRMZ8oRR69P-27" value="" style="curved=1;endArrow=classic;html=1;rounded=0;entryX=1;entryY=0.333;entryDx=0;entryDy=0;entryPerimeter=0;exitX=1.167;exitY=0.295;exitDx=0;exitDy=0;exitPerimeter=0;" edge="1" parent="1">
          <mxGeometry width="50" height="50" relative="1" as="geometry">
            <mxPoint x="322.5049999999999" y="1759.9999999999998" as="sourcePoint" />
            <mxPoint x="320" y="1773.6799999999996" as="targetPoint" />
            <Array as="points">
              <mxPoint x="440" y="1760" />
            </Array>
          </mxGeometry>
        </mxCell>
        <mxCell id="zVxiFQP6XtRMZ8oRR69P-28" value="Calculer note" style="text;html=1;align=center;verticalAlign=middle;whiteSpace=wrap;rounded=0;" vertex="1" parent="1">
          <mxGeometry x="410" y="1740" width="60" height="30" as="geometry" />
        </mxCell>
        <mxCell id="zVxiFQP6XtRMZ8oRR69P-30" value="Sauvegarder notes" style="html=1;verticalAlign=bottom;endArrow=block;curved=0;rounded=0;entryX=0.737;entryY=0.5;entryDx=0;entryDy=0;entryPerimeter=0;" edge="1" parent="1" source="zVxiFQP6XtRMZ8oRR69P-8" target="zVxiFQP6XtRMZ8oRR69P-4">
          <mxGeometry width="80" relative="1" as="geometry">
            <mxPoint x="480" y="1760" as="sourcePoint" />
            <mxPoint x="560" y="1760" as="targetPoint" />
          </mxGeometry>
        </mxCell>
        <mxCell id="zVxiFQP6XtRMZ8oRR69P-31" value="Confirmation" style="html=1;verticalAlign=bottom;endArrow=open;dashed=1;endSize=8;curved=0;rounded=0;exitX=0.791;exitY=0.75;exitDx=0;exitDy=0;exitPerimeter=0;" edge="1" parent="1" source="zVxiFQP6XtRMZ8oRR69P-4" target="zVxiFQP6XtRMZ8oRR69P-8">
          <mxGeometry relative="1" as="geometry">
            <mxPoint x="560" y="1760" as="sourcePoint" />
            <mxPoint x="480" y="1760" as="targetPoint" />
          </mxGeometry>
        </mxCell>
        <mxCell id="zVxiFQP6XtRMZ8oRR69P-32" value="Notifier enseignant" style="html=1;verticalAlign=bottom;endArrow=block;curved=0;rounded=0;entryX=0.896;entryY=0.833;entryDx=0;entryDy=0;entryPerimeter=0;" edge="1" parent="1">
          <mxGeometry width="80" relative="1" as="geometry">
            <mxPoint x="320" y="1920" as="sourcePoint" />
            <mxPoint x="916.6699999999996" y="1920" as="targetPoint" />
          </mxGeometry>
        </mxCell>
        <mxCell id="zVxiFQP6XtRMZ8oRR69P-33" value="Notification envoyé" style="html=1;verticalAlign=bottom;endArrow=open;dashed=1;endSize=8;curved=0;rounded=0;exitX=0.897;exitY=0.917;exitDx=0;exitDy=0;exitPerimeter=0;entryX=0.899;entryY=0.083;entryDx=0;entryDy=0;entryPerimeter=0;" edge="1" parent="1" source="zVxiFQP6XtRMZ8oRR69P-5" target="zVxiFQP6XtRMZ8oRR69P-1">
          <mxGeometry relative="1" as="geometry">
            <mxPoint x="560" y="1760" as="sourcePoint" />
            <mxPoint x="30" y="1980" as="targetPoint" />
          </mxGeometry>
        </mxCell>
        <mxCell id="zVxiFQP6XtRMZ8oRR69P-35" value="Afficher resultats" style="html=1;verticalAlign=bottom;endArrow=open;dashed=1;endSize=8;curved=0;rounded=0;exitX=0.957;exitY=0.833;exitDx=0;exitDy=0;exitPerimeter=0;entryX=0.959;entryY=0.167;entryDx=0;entryDy=0;entryPerimeter=0;" edge="1" parent="1" source="zVxiFQP6XtRMZ8oRR69P-3" target="zVxiFQP6XtRMZ8oRR69P-1">
          <mxGeometry relative="1" as="geometry">
            <mxPoint x="100" y="1740" as="sourcePoint" />
            <mxPoint x="20" y="1740" as="targetPoint" />
          </mxGeometry>
        </mxCell>
        <mxCell id="zVxiFQP6XtRMZ8oRR69P-37" value="Scénario : Administrateur gère utilisateurs" style="rounded=0;whiteSpace=wrap;html=1;" vertex="1" parent="1">
          <mxGeometry x="-320" y="2040" width="1280" height="50" as="geometry" />
        </mxCell>
        <mxCell id="zVxiFQP6XtRMZ8oRR69P-38" value="" style="line;strokeWidth=2;direction=south;html=1;" vertex="1" parent="1">
          <mxGeometry x="-275" y="2090" width="10" height="350" as="geometry" />
        </mxCell>
        <mxCell id="zVxiFQP6XtRMZ8oRR69P-39" value="" style="line;strokeWidth=2;direction=south;html=1;" vertex="1" parent="1">
          <mxGeometry x="15" y="2090" width="10" height="350" as="geometry" />
        </mxCell>
        <mxCell id="zVxiFQP6XtRMZ8oRR69P-40" value="" style="line;strokeWidth=2;direction=south;html=1;" vertex="1" parent="1">
          <mxGeometry x="305" y="2090" width="10" height="350" as="geometry" />
        </mxCell>
        <mxCell id="zVxiFQP6XtRMZ8oRR69P-41" value="" style="line;strokeWidth=2;direction=south;html=1;" vertex="1" parent="1">
          <mxGeometry x="585" y="2090" width="10" height="350" as="geometry" />
        </mxCell>
        <mxCell id="zVxiFQP6XtRMZ8oRR69P-42" value="" style="line;strokeWidth=2;direction=south;html=1;" vertex="1" parent="1">
          <mxGeometry x="915" y="2090" width="10" height="350" as="geometry" />
        </mxCell>
        <mxCell id="zVxiFQP6XtRMZ8oRR69P-43" value="" style="html=1;points=[[0,0,0,0,5],[0,1,0,0,-5],[1,0,0,0,5],[1,1,0,0,-5]];perimeter=orthogonalPerimeter;outlineConnect=0;targetShapes=umlLifeline;portConstraint=eastwest;newEdgeStyle={&quot;curved&quot;:0,&quot;rounded&quot;:0};" vertex="1" parent="1">
          <mxGeometry x="305" y="2120" width="10" height="280" as="geometry" />
        </mxCell>
        <mxCell id="zVxiFQP6XtRMZ8oRR69P-44" value="" style="html=1;points=[[0,0,0,0,5],[0,1,0,0,-5],[1,0,0,0,5],[1,1,0,0,-5]];perimeter=orthogonalPerimeter;outlineConnect=0;targetShapes=umlLifeline;portConstraint=eastwest;newEdgeStyle={&quot;curved&quot;:0,&quot;rounded&quot;:0};" vertex="1" parent="1">
          <mxGeometry x="585" y="2160" width="10" height="40" as="geometry" />
        </mxCell>
        <mxCell id="zVxiFQP6XtRMZ8oRR69P-45" value="" style="html=1;points=[[0,0,0,0,5],[0,1,0,0,-5],[1,0,0,0,5],[1,1,0,0,-5]];perimeter=orthogonalPerimeter;outlineConnect=0;targetShapes=umlLifeline;portConstraint=eastwest;newEdgeStyle={&quot;curved&quot;:0,&quot;rounded&quot;:0};" vertex="1" parent="1">
          <mxGeometry x="585" y="2240" width="10" height="40" as="geometry" />
        </mxCell>
        <mxCell id="zVxiFQP6XtRMZ8oRR69P-46" value="Creer utilisateur" style="html=1;verticalAlign=bottom;endArrow=block;curved=0;rounded=0;exitX=0.075;exitY=0.5;exitDx=0;exitDy=0;exitPerimeter=0;entryX=0.089;entryY=0.583;entryDx=0;entryDy=0;entryPerimeter=0;" edge="1" parent="1" source="zVxiFQP6XtRMZ8oRR69P-38" target="zVxiFQP6XtRMZ8oRR69P-40">
          <mxGeometry width="80" relative="1" as="geometry">
            <mxPoint x="120" y="2180" as="sourcePoint" />
            <mxPoint x="200" y="2180" as="targetPoint" />
          </mxGeometry>
        </mxCell>
        <mxCell id="zVxiFQP6XtRMZ8oRR69P-47" value="Verifier doublons" style="html=1;verticalAlign=bottom;endArrow=block;curved=0;rounded=0;" edge="1" parent="1" source="zVxiFQP6XtRMZ8oRR69P-43">
          <mxGeometry width="80" relative="1" as="geometry">
            <mxPoint x="120" y="2180" as="sourcePoint" />
            <mxPoint x="588" y="2160" as="targetPoint" />
          </mxGeometry>
        </mxCell>
        <mxCell id="zVxiFQP6XtRMZ8oRR69P-49" value="Resultat verification" style="html=1;verticalAlign=bottom;endArrow=open;dashed=1;endSize=8;curved=0;rounded=0;exitX=0.304;exitY=0.833;exitDx=0;exitDy=0;exitPerimeter=0;" edge="1" parent="1" source="zVxiFQP6XtRMZ8oRR69P-41" target="zVxiFQP6XtRMZ8oRR69P-43">
          <mxGeometry relative="1" as="geometry">
            <mxPoint x="200" y="2180" as="sourcePoint" />
            <mxPoint x="120" y="2180" as="targetPoint" />
          </mxGeometry>
        </mxCell>
        <mxCell id="zVxiFQP6XtRMZ8oRR69P-50" value="Enregistrer utilisateur" style="html=1;verticalAlign=bottom;endArrow=block;curved=0;rounded=0;entryX=0.427;entryY=0.667;entryDx=0;entryDy=0;entryPerimeter=0;" edge="1" parent="1" target="zVxiFQP6XtRMZ8oRR69P-41">
          <mxGeometry width="80" relative="1" as="geometry">
            <mxPoint x="320" y="2236" as="sourcePoint" />
            <mxPoint x="200" y="2180" as="targetPoint" />
          </mxGeometry>
        </mxCell>
        <mxCell id="zVxiFQP6XtRMZ8oRR69P-51" value="Confirmation" style="html=1;verticalAlign=bottom;endArrow=open;dashed=1;endSize=8;curved=0;rounded=0;exitX=0.546;exitY=0.667;exitDx=0;exitDy=0;exitPerimeter=0;" edge="1" parent="1" source="zVxiFQP6XtRMZ8oRR69P-41" target="zVxiFQP6XtRMZ8oRR69P-43">
          <mxGeometry relative="1" as="geometry">
            <mxPoint x="200" y="2180" as="sourcePoint" />
            <mxPoint x="120" y="2180" as="targetPoint" />
          </mxGeometry>
        </mxCell>
        <mxCell id="zVxiFQP6XtRMZ8oRR69P-52" value="Notifier nouvel utilisateur" style="html=1;verticalAlign=bottom;endArrow=block;curved=0;rounded=0;exitX=1.5;exitY=0.722;exitDx=0;exitDy=0;exitPerimeter=0;entryX=0.668;entryY=0.75;entryDx=0;entryDy=0;entryPerimeter=0;" edge="1" parent="1" source="zVxiFQP6XtRMZ8oRR69P-43" target="zVxiFQP6XtRMZ8oRR69P-42">
          <mxGeometry width="80" relative="1" as="geometry">
            <mxPoint x="490" y="2300" as="sourcePoint" />
            <mxPoint x="570" y="2300" as="targetPoint" />
          </mxGeometry>
        </mxCell>
        <mxCell id="zVxiFQP6XtRMZ8oRR69P-53" value="Notification envoyée" style="html=1;verticalAlign=bottom;endArrow=open;dashed=1;endSize=8;curved=0;rounded=0;exitX=0.775;exitY=0.5;exitDx=0;exitDy=0;exitPerimeter=0;" edge="1" parent="1" source="zVxiFQP6XtRMZ8oRR69P-42">
          <mxGeometry relative="1" as="geometry">
            <mxPoint x="570" y="2300" as="sourcePoint" />
            <mxPoint x="-270" y="2363" as="targetPoint" />
          </mxGeometry>
        </mxCell>
        <mxCell id="zVxiFQP6XtRMZ8oRR69P-54" value="Utilisateur crée" style="html=1;verticalAlign=bottom;endArrow=open;dashed=1;endSize=8;curved=0;rounded=0;exitX=0.887;exitY=0.667;exitDx=0;exitDy=0;exitPerimeter=0;entryX=0.882;entryY=0.333;entryDx=0;entryDy=0;entryPerimeter=0;" edge="1" parent="1" source="zVxiFQP6XtRMZ8oRR69P-40" target="zVxiFQP6XtRMZ8oRR69P-38">
          <mxGeometry relative="1" as="geometry">
            <mxPoint x="210" y="2300" as="sourcePoint" />
            <mxPoint x="130" y="2300" as="targetPoint" />
          </mxGeometry>
        </mxCell>
        <mxCell id="zVxiFQP6XtRMZ8oRR69P-55" value="Scénario : Responsable scolarité gère classes" style="rounded=0;whiteSpace=wrap;html=1;" vertex="1" parent="1">
          <mxGeometry x="-320" y="2440" width="1280" height="50" as="geometry" />
        </mxCell>
        <mxCell id="zVxiFQP6XtRMZ8oRR69P-57" value="" style="line;strokeWidth=2;direction=south;html=1;" vertex="1" parent="1">
          <mxGeometry x="-275" y="2490" width="10" height="590" as="geometry" />
        </mxCell>
        <mxCell id="zVxiFQP6XtRMZ8oRR69P-58" value="" style="line;strokeWidth=2;direction=south;html=1;" vertex="1" parent="1">
          <mxGeometry x="15" y="2490" width="10" height="590" as="geometry" />
        </mxCell>
        <mxCell id="zVxiFQP6XtRMZ8oRR69P-59" value="" style="line;strokeWidth=2;direction=south;html=1;" vertex="1" parent="1">
          <mxGeometry x="305" y="2490" width="10" height="590" as="geometry" />
        </mxCell>
        <mxCell id="zVxiFQP6XtRMZ8oRR69P-60" value="" style="line;strokeWidth=2;direction=south;html=1;" vertex="1" parent="1">
          <mxGeometry x="585" y="2490" width="10" height="590" as="geometry" />
        </mxCell>
        <mxCell id="zVxiFQP6XtRMZ8oRR69P-61" value="" style="line;strokeWidth=2;direction=south;html=1;" vertex="1" parent="1">
          <mxGeometry x="915" y="2490" width="10" height="590" as="geometry" />
        </mxCell>
        <mxCell id="zVxiFQP6XtRMZ8oRR69P-62" value="" style="html=1;points=[[0,0,0,0,5],[0,1,0,0,-5],[1,0,0,0,5],[1,1,0,0,-5]];perimeter=orthogonalPerimeter;outlineConnect=0;targetShapes=umlLifeline;portConstraint=eastwest;newEdgeStyle={&quot;curved&quot;:0,&quot;rounded&quot;:0};" vertex="1" parent="1">
          <mxGeometry x="585" y="2560" width="10" height="40" as="geometry" />
        </mxCell>
        <mxCell id="zVxiFQP6XtRMZ8oRR69P-63" value="" style="html=1;points=[[0,0,0,0,5],[0,1,0,0,-5],[1,0,0,0,5],[1,1,0,0,-5]];perimeter=orthogonalPerimeter;outlineConnect=0;targetShapes=umlLifeline;portConstraint=eastwest;newEdgeStyle={&quot;curved&quot;:0,&quot;rounded&quot;:0};" vertex="1" parent="1">
          <mxGeometry x="585" y="2680" width="10" height="40" as="geometry" />
        </mxCell>
        <mxCell id="zVxiFQP6XtRMZ8oRR69P-64" value="" style="html=1;points=[[0,0,0,0,5],[0,1,0,0,-5],[1,0,0,0,5],[1,1,0,0,-5]];perimeter=orthogonalPerimeter;outlineConnect=0;targetShapes=umlLifeline;portConstraint=eastwest;newEdgeStyle={&quot;curved&quot;:0,&quot;rounded&quot;:0};" vertex="1" parent="1">
          <mxGeometry x="585" y="2880" width="10" height="40" as="geometry" />
        </mxCell>
        <mxCell id="zVxiFQP6XtRMZ8oRR69P-65" value="" style="html=1;points=[[0,0,0,0,5],[0,1,0,0,-5],[1,0,0,0,5],[1,1,0,0,-5]];perimeter=orthogonalPerimeter;outlineConnect=0;targetShapes=umlLifeline;portConstraint=eastwest;newEdgeStyle={&quot;curved&quot;:0,&quot;rounded&quot;:0};" vertex="1" parent="1">
          <mxGeometry x="305" y="2840" width="10" height="200" as="geometry" />
        </mxCell>
        <mxCell id="zVxiFQP6XtRMZ8oRR69P-68" value="Creer classe" style="html=1;verticalAlign=bottom;endArrow=block;curved=0;rounded=0;exitX=0.057;exitY=0.124;exitDx=0;exitDy=0;exitPerimeter=0;entryX=0.056;entryY=0.006;entryDx=0;entryDy=0;entryPerimeter=0;" edge="1" parent="1" source="zVxiFQP6XtRMZ8oRR69P-57" target="zVxiFQP6XtRMZ8oRR69P-59">
          <mxGeometry width="80" relative="1" as="geometry">
            <mxPoint x="-40" y="2580" as="sourcePoint" />
            <mxPoint x="40" y="2580" as="targetPoint" />
          </mxGeometry>
        </mxCell>
        <mxCell id="zVxiFQP6XtRMZ8oRR69P-69" value="Enregistrer classe" style="html=1;verticalAlign=bottom;endArrow=block;curved=0;rounded=0;entryX=0;entryY=0;entryDx=0;entryDy=5;entryPerimeter=0;exitX=0.127;exitY=0.398;exitDx=0;exitDy=0;exitPerimeter=0;" edge="1" parent="1" source="zVxiFQP6XtRMZ8oRR69P-59" target="zVxiFQP6XtRMZ8oRR69P-62">
          <mxGeometry width="80" relative="1" as="geometry">
            <mxPoint x="110" y="2580" as="sourcePoint" />
            <mxPoint x="190" y="2580" as="targetPoint" />
          </mxGeometry>
        </mxCell>
        <mxCell id="zVxiFQP6XtRMZ8oRR69P-70" value="Confirmation" style="html=1;verticalAlign=bottom;endArrow=open;dashed=1;endSize=8;curved=0;rounded=0;exitX=0.187;exitY=0.555;exitDx=0;exitDy=0;exitPerimeter=0;" edge="1" parent="1" source="zVxiFQP6XtRMZ8oRR69P-60">
          <mxGeometry relative="1" as="geometry">
            <mxPoint x="190" y="2580" as="sourcePoint" />
            <mxPoint x="310" y="2600" as="targetPoint" />
          </mxGeometry>
        </mxCell>
        <mxCell id="zVxiFQP6XtRMZ8oRR69P-71" value="Affecter enseignants" style="html=1;verticalAlign=bottom;endArrow=block;curved=0;rounded=0;exitX=0.25;exitY=0.5;exitDx=0;exitDy=0;exitPerimeter=0;entryX=0.25;entryY=0.5;entryDx=0;entryDy=0;entryPerimeter=0;" edge="1" parent="1" source="zVxiFQP6XtRMZ8oRR69P-57" target="zVxiFQP6XtRMZ8oRR69P-59">
          <mxGeometry width="80" relative="1" as="geometry">
            <mxPoint x="110" y="2580" as="sourcePoint" />
            <mxPoint x="190" y="2580" as="targetPoint" />
          </mxGeometry>
        </mxCell>
        <mxCell id="zVxiFQP6XtRMZ8oRR69P-72" value="Mettre à jour affectation" style="html=1;verticalAlign=bottom;endArrow=block;curved=0;rounded=0;entryX=0.324;entryY=0.32;entryDx=0;entryDy=0;entryPerimeter=0;exitX=0.32;exitY=0.555;exitDx=0;exitDy=0;exitPerimeter=0;" edge="1" parent="1" source="zVxiFQP6XtRMZ8oRR69P-59" target="zVxiFQP6XtRMZ8oRR69P-60">
          <mxGeometry width="80" relative="1" as="geometry">
            <mxPoint x="310" y="2670" as="sourcePoint" />
            <mxPoint x="390" y="2670" as="targetPoint" />
          </mxGeometry>
        </mxCell>
        <mxCell id="zVxiFQP6XtRMZ8oRR69P-73" value="Confirmation" style="html=1;verticalAlign=bottom;endArrow=open;dashed=1;endSize=8;curved=0;rounded=0;exitX=0.392;exitY=0.633;exitDx=0;exitDy=0;exitPerimeter=0;entryX=0.394;entryY=0.633;entryDx=0;entryDy=0;entryPerimeter=0;" edge="1" parent="1" source="zVxiFQP6XtRMZ8oRR69P-60" target="zVxiFQP6XtRMZ8oRR69P-59">
          <mxGeometry relative="1" as="geometry">
            <mxPoint x="390" y="2670" as="sourcePoint" />
            <mxPoint x="310" y="2670" as="targetPoint" />
          </mxGeometry>
        </mxCell>
        <mxCell id="zVxiFQP6XtRMZ8oRR69P-74" value="Notifier enseignants" style="html=1;verticalAlign=bottom;endArrow=block;curved=0;rounded=0;exitX=0.464;exitY=0.476;exitDx=0;exitDy=0;exitPerimeter=0;entryX=0.458;entryY=0.849;entryDx=0;entryDy=0;entryPerimeter=0;" edge="1" parent="1" source="zVxiFQP6XtRMZ8oRR69P-59" target="zVxiFQP6XtRMZ8oRR69P-61">
          <mxGeometry width="80" relative="1" as="geometry">
            <mxPoint x="500" y="2810" as="sourcePoint" />
            <mxPoint x="580" y="2810" as="targetPoint" />
          </mxGeometry>
        </mxCell>
        <mxCell id="zVxiFQP6XtRMZ8oRR69P-75" value="Notification envoyée" style="html=1;verticalAlign=bottom;endArrow=open;dashed=1;endSize=8;curved=0;rounded=0;exitX=0.527;exitY=0.614;exitDx=0;exitDy=0;exitPerimeter=0;entryX=0.529;entryY=0.594;entryDx=0;entryDy=0;entryPerimeter=0;" edge="1" parent="1" source="zVxiFQP6XtRMZ8oRR69P-61" target="zVxiFQP6XtRMZ8oRR69P-57">
          <mxGeometry relative="1" as="geometry">
            <mxPoint x="580" y="2810" as="sourcePoint" />
            <mxPoint x="500" y="2810" as="targetPoint" />
          </mxGeometry>
        </mxCell>
        <mxCell id="zVxiFQP6XtRMZ8oRR69P-76" value="Inscrire etudiants" style="html=1;verticalAlign=bottom;endArrow=block;curved=0;rounded=0;entryX=0;entryY=0;entryDx=0;entryDy=5;entryPerimeter=0;exitX=0.606;exitY=0.673;exitDx=0;exitDy=0;exitPerimeter=0;" edge="1" parent="1" source="zVxiFQP6XtRMZ8oRR69P-57" target="zVxiFQP6XtRMZ8oRR69P-65">
          <mxGeometry width="80" relative="1" as="geometry">
            <mxPoint y="3010" as="sourcePoint" />
            <mxPoint x="80" y="3010" as="targetPoint" />
          </mxGeometry>
        </mxCell>
        <mxCell id="zVxiFQP6XtRMZ8oRR69P-77" value="Mettre à jour inscription" style="html=1;verticalAlign=bottom;endArrow=block;curved=0;rounded=0;entryX=0;entryY=0;entryDx=0;entryDy=5;entryPerimeter=0;" edge="1" parent="1" source="zVxiFQP6XtRMZ8oRR69P-65" target="zVxiFQP6XtRMZ8oRR69P-64">
          <mxGeometry width="80" relative="1" as="geometry">
            <mxPoint x="280" y="3010" as="sourcePoint" />
            <mxPoint x="360" y="3010" as="targetPoint" />
          </mxGeometry>
        </mxCell>
        <mxCell id="zVxiFQP6XtRMZ8oRR69P-78" value="Confirmation" style="html=1;verticalAlign=bottom;endArrow=open;dashed=1;endSize=8;curved=0;rounded=0;exitX=0.733;exitY=0.79;exitDx=0;exitDy=0;exitPerimeter=0;entryX=0.737;entryY=0.006;entryDx=0;entryDy=0;entryPerimeter=0;" edge="1" parent="1" source="zVxiFQP6XtRMZ8oRR69P-60" target="zVxiFQP6XtRMZ8oRR69P-59">
          <mxGeometry relative="1" as="geometry">
            <mxPoint x="360" y="3010" as="sourcePoint" />
            <mxPoint x="280" y="3010" as="targetPoint" />
          </mxGeometry>
        </mxCell>
        <mxCell id="zVxiFQP6XtRMZ8oRR69P-79" value="Notifier etudiants" style="html=1;verticalAlign=bottom;endArrow=block;curved=0;rounded=0;entryX=0.803;entryY=0.692;entryDx=0;entryDy=0;entryPerimeter=0;" edge="1" parent="1" source="zVxiFQP6XtRMZ8oRR69P-65" target="zVxiFQP6XtRMZ8oRR69P-61">
          <mxGeometry width="80" relative="1" as="geometry">
            <mxPoint x="280" y="3010" as="sourcePoint" />
            <mxPoint x="360" y="3010" as="targetPoint" />
          </mxGeometry>
        </mxCell>
        <mxCell id="zVxiFQP6XtRMZ8oRR69P-80" value="Notification envoyée" style="html=1;verticalAlign=bottom;endArrow=open;dashed=1;endSize=8;curved=0;rounded=0;exitX=0.869;exitY=0.692;exitDx=0;exitDy=0;exitPerimeter=0;entryX=0.866;entryY=0.437;entryDx=0;entryDy=0;entryPerimeter=0;" edge="1" parent="1" source="zVxiFQP6XtRMZ8oRR69P-61" target="zVxiFQP6XtRMZ8oRR69P-57">
          <mxGeometry relative="1" as="geometry">
            <mxPoint x="590" y="3010" as="sourcePoint" />
            <mxPoint x="510" y="3010" as="targetPoint" />
          </mxGeometry>
        </mxCell>
        <mxCell id="zVxiFQP6XtRMZ8oRR69P-81" value="Classe configurée" style="html=1;verticalAlign=bottom;endArrow=open;dashed=1;endSize=8;curved=0;rounded=0;exitX=0.933;exitY=0.79;exitDx=0;exitDy=0;exitPerimeter=0;entryX=0.938;entryY=0.594;entryDx=0;entryDy=0;entryPerimeter=0;" edge="1" parent="1" source="zVxiFQP6XtRMZ8oRR69P-59" target="zVxiFQP6XtRMZ8oRR69P-57">
          <mxGeometry relative="1" as="geometry">
            <mxPoint x="140" y="3010" as="sourcePoint" />
            <mxPoint x="60" y="3010" as="targetPoint" />
          </mxGeometry>
        </mxCell>
        <mxCell id="zVxiFQP6XtRMZ8oRR69P-82" value="Scénario : Comptable gère paiement" style="rounded=0;whiteSpace=wrap;html=1;" vertex="1" parent="1">
          <mxGeometry x="-320" y="3070" width="1280" height="50" as="geometry" />
        </mxCell>
        <mxCell id="zVxiFQP6XtRMZ8oRR69P-83" value="" style="line;strokeWidth=2;direction=south;html=1;" vertex="1" parent="1">
          <mxGeometry x="-275" y="3120" width="10" height="360" as="geometry" />
        </mxCell>
        <mxCell id="zVxiFQP6XtRMZ8oRR69P-84" value="" style="line;strokeWidth=2;direction=south;html=1;" vertex="1" parent="1">
          <mxGeometry x="15" y="3120" width="10" height="360" as="geometry" />
        </mxCell>
        <mxCell id="zVxiFQP6XtRMZ8oRR69P-85" value="" style="line;strokeWidth=2;direction=south;html=1;" vertex="1" parent="1">
          <mxGeometry x="305" y="3120" width="10" height="360" as="geometry" />
        </mxCell>
        <mxCell id="zVxiFQP6XtRMZ8oRR69P-86" value="" style="line;strokeWidth=2;direction=south;html=1;" vertex="1" parent="1">
          <mxGeometry x="585" y="3110" width="10" height="370" as="geometry" />
        </mxCell>
        <mxCell id="zVxiFQP6XtRMZ8oRR69P-87" value="" style="line;strokeWidth=2;direction=south;html=1;" vertex="1" parent="1">
          <mxGeometry x="915" y="3120" width="10" height="360" as="geometry" />
        </mxCell>
        <mxCell id="zVxiFQP6XtRMZ8oRR69P-88" value="" style="html=1;points=[[0,0,0,0,5],[0,1,0,0,-5],[1,0,0,0,5],[1,1,0,0,-5]];perimeter=orthogonalPerimeter;outlineConnect=0;targetShapes=umlLifeline;portConstraint=eastwest;newEdgeStyle={&quot;curved&quot;:0,&quot;rounded&quot;:0};" vertex="1" parent="1">
          <mxGeometry x="305" y="3160" width="10" height="280" as="geometry" />
        </mxCell>
        <mxCell id="zVxiFQP6XtRMZ8oRR69P-89" value="" style="html=1;points=[[0,0,0,0,5],[0,1,0,0,-5],[1,0,0,0,5],[1,1,0,0,-5]];perimeter=orthogonalPerimeter;outlineConnect=0;targetShapes=umlLifeline;portConstraint=eastwest;newEdgeStyle={&quot;curved&quot;:0,&quot;rounded&quot;:0};" vertex="1" parent="1">
          <mxGeometry x="585" y="3200" width="10" height="40" as="geometry" />
        </mxCell>
        <mxCell id="zVxiFQP6XtRMZ8oRR69P-90" value="" style="html=1;points=[[0,0,0,0,5],[0,1,0,0,-5],[1,0,0,0,5],[1,1,0,0,-5]];perimeter=orthogonalPerimeter;outlineConnect=0;targetShapes=umlLifeline;portConstraint=eastwest;newEdgeStyle={&quot;curved&quot;:0,&quot;rounded&quot;:0};" vertex="1" parent="1">
          <mxGeometry x="585" y="3280" width="10" height="40" as="geometry" />
        </mxCell>
        <mxCell id="zVxiFQP6XtRMZ8oRR69P-91" value="Enregistrer paiement" style="html=1;verticalAlign=bottom;endArrow=block;curved=0;rounded=0;exitX=0.106;exitY=0.124;exitDx=0;exitDy=0;exitPerimeter=0;entryX=0.112;entryY=0.555;entryDx=0;entryDy=0;entryPerimeter=0;" edge="1" parent="1" source="zVxiFQP6XtRMZ8oRR69P-83" target="zVxiFQP6XtRMZ8oRR69P-85">
          <mxGeometry width="80" relative="1" as="geometry">
            <mxPoint x="30" y="3330" as="sourcePoint" />
            <mxPoint x="110" y="3330" as="targetPoint" />
          </mxGeometry>
        </mxCell>
        <mxCell id="zVxiFQP6XtRMZ8oRR69P-92" value="Verifier statut" style="html=1;verticalAlign=bottom;endArrow=block;curved=0;rounded=0;exitX=1.5;exitY=0.143;exitDx=0;exitDy=0;exitPerimeter=0;" edge="1" parent="1" source="zVxiFQP6XtRMZ8oRR69P-88" target="zVxiFQP6XtRMZ8oRR69P-89">
          <mxGeometry width="80" relative="1" as="geometry">
            <mxPoint x="370" y="3330" as="sourcePoint" />
            <mxPoint x="450" y="3330" as="targetPoint" />
          </mxGeometry>
        </mxCell>
        <mxCell id="zVxiFQP6XtRMZ8oRR69P-93" value="Statut actuel" style="html=1;verticalAlign=bottom;endArrow=open;dashed=1;endSize=8;curved=0;rounded=0;exitX=0.361;exitY=0.633;exitDx=0;exitDy=0;exitPerimeter=0;" edge="1" parent="1" source="zVxiFQP6XtRMZ8oRR69P-86" target="zVxiFQP6XtRMZ8oRR69P-88">
          <mxGeometry relative="1" as="geometry">
            <mxPoint x="450" y="3330" as="sourcePoint" />
            <mxPoint x="370" y="3330" as="targetPoint" />
          </mxGeometry>
        </mxCell>
        <mxCell id="zVxiFQP6XtRMZ8oRR69P-94" value="Sauvegarder paiement" style="html=1;verticalAlign=bottom;endArrow=block;curved=0;rounded=0;entryX=0;entryY=0;entryDx=0;entryDy=5;entryPerimeter=0;" edge="1" parent="1" source="zVxiFQP6XtRMZ8oRR69P-88" target="zVxiFQP6XtRMZ8oRR69P-90">
          <mxGeometry width="80" relative="1" as="geometry">
            <mxPoint x="370" y="3330" as="sourcePoint" />
            <mxPoint x="450" y="3330" as="targetPoint" />
          </mxGeometry>
        </mxCell>
        <mxCell id="zVxiFQP6XtRMZ8oRR69P-95" value="Confirmation" style="html=1;verticalAlign=bottom;endArrow=open;dashed=1;endSize=8;curved=0;rounded=0;exitX=0.569;exitY=0.398;exitDx=0;exitDy=0;exitPerimeter=0;" edge="1" parent="1" source="zVxiFQP6XtRMZ8oRR69P-86" target="zVxiFQP6XtRMZ8oRR69P-88">
          <mxGeometry relative="1" as="geometry">
            <mxPoint x="450" y="3330" as="sourcePoint" />
            <mxPoint x="370" y="3330" as="targetPoint" />
          </mxGeometry>
        </mxCell>
        <mxCell id="zVxiFQP6XtRMZ8oRR69P-96" value="Notifier etudiant" style="html=1;verticalAlign=bottom;endArrow=block;curved=0;rounded=0;exitX=1.5;exitY=0.714;exitDx=0;exitDy=0;exitPerimeter=0;entryX=0.661;entryY=0.614;entryDx=0;entryDy=0;entryPerimeter=0;" edge="1" parent="1" source="zVxiFQP6XtRMZ8oRR69P-88" target="zVxiFQP6XtRMZ8oRR69P-87">
          <mxGeometry width="80" relative="1" as="geometry">
            <mxPoint x="370" y="3330" as="sourcePoint" />
            <mxPoint x="450" y="3330" as="targetPoint" />
          </mxGeometry>
        </mxCell>
        <mxCell id="zVxiFQP6XtRMZ8oRR69P-97" value="Notification envoyée" style="html=1;verticalAlign=bottom;endArrow=open;dashed=1;endSize=8;curved=0;rounded=0;exitX=0.779;exitY=0.771;exitDx=0;exitDy=0;exitPerimeter=0;entryX=0.783;entryY=0.359;entryDx=0;entryDy=0;entryPerimeter=0;" edge="1" parent="1" source="zVxiFQP6XtRMZ8oRR69P-87" target="zVxiFQP6XtRMZ8oRR69P-83">
          <mxGeometry relative="1" as="geometry">
            <mxPoint x="750" y="3330" as="sourcePoint" />
            <mxPoint x="670" y="3330" as="targetPoint" />
          </mxGeometry>
        </mxCell>
        <mxCell id="zVxiFQP6XtRMZ8oRR69P-98" value="Paiement enregistré" style="html=1;verticalAlign=bottom;endArrow=open;dashed=1;endSize=8;curved=0;rounded=0;exitX=0.897;exitY=0.712;exitDx=0;exitDy=0;exitPerimeter=0;entryX=0.89;entryY=0.202;entryDx=0;entryDy=0;entryPerimeter=0;" edge="1" parent="1" source="zVxiFQP6XtRMZ8oRR69P-85" target="zVxiFQP6XtRMZ8oRR69P-83">
          <mxGeometry relative="1" as="geometry">
            <mxPoint x="240" y="3370" as="sourcePoint" />
            <mxPoint x="-260" y="3443" as="targetPoint" />
          </mxGeometry>
        </mxCell>
        <mxCell id="zVxiFQP6XtRMZ8oRR69P-99" value="Utilisateur" style="rounded=0;whiteSpace=wrap;html=1;" vertex="1" parent="1">
          <mxGeometry x="-330" y="3480" width="120" height="60" as="geometry" />
        </mxCell>
        <mxCell id="zVxiFQP6XtRMZ8oRR69P-100" value="Authentification" style="rounded=0;whiteSpace=wrap;html=1;" vertex="1" parent="1">
          <mxGeometry x="-40" y="3480" width="120" height="60" as="geometry" />
        </mxCell>
        <mxCell id="zVxiFQP6XtRMZ8oRR69P-101" value="Systeme" style="rounded=0;whiteSpace=wrap;html=1;" vertex="1" parent="1">
          <mxGeometry x="250" y="3480" width="120" height="60" as="geometry" />
        </mxCell>
        <mxCell id="zVxiFQP6XtRMZ8oRR69P-102" value="Base de données" style="rounded=0;whiteSpace=wrap;html=1;" vertex="1" parent="1">
          <mxGeometry x="530" y="3480" width="120" height="60" as="geometry" />
        </mxCell>
        <mxCell id="zVxiFQP6XtRMZ8oRR69P-103" value="Notifications" style="rounded=0;whiteSpace=wrap;html=1;" vertex="1" parent="1">
          <mxGeometry x="860" y="3480" width="120" height="60" as="geometry" />
        </mxCell>
      </root>
    </mxGraphModel>
  </diagram>
</mxfile>
